<?xml version="1.0" encoding="utf-8"?>
<!-- Generator: Adobe Illustrator 23.0.4, SVG Export Plug-In . SVG Version: 6.00 Build 0)  -->
<svg version="1.1" id="Layer_1" xmlns="http://www.w3.org/2000/svg" xmlns:xlink="http://www.w3.org/1999/xlink" x="0px" y="0px"
	 viewBox="0 0 100 100" style="enable-background:new 0 0 100 100;" xml:space="preserve">
<path fill="#f82148" d="M84,25.5L51.4,2.7c-0.6-0.4-1.4-0.4-1.9,0C49.1,3,16,27.3,16,72.8c0,0.6,0.2,1.1,0.7,1.4l32.7,22.9h0.1c0,0,0.1,0,0.1,0.1
	c0.1,0,0.1,0,0.2,0.1h0.1c0.1,0,0.2,0.1,0.5,0.1s0.5-0.1,0.7-0.1c0,0,0.1,0,0.1-0.1c0,0,0.1,0,0.1-0.1L84,74.4L84,25.5z M48.6,92.5
	L19.3,72c0.4-39,25.8-61.5,31-65.8l29.8,20.9C73.3,32.8,49.9,55.2,48.6,92.5z"/>
</svg>
