<?xml version="1.0" encoding="utf-8"?>
<!-- Generator: Adobe Illustrator 23.0.4, SVG Export Plug-In . SVG Version: 6.00 Build 0)  -->
<svg version="1.1" id="Layer_1" xmlns="http://www.w3.org/2000/svg" xmlns:xlink="http://www.w3.org/1999/xlink" x="0px" y="0px"
	 viewBox="0 0 100 100" style="enable-background:new 0 0 100 100;" xml:space="preserve">
<path fill="#f82148" d="M82.9,24.4c0-0.1-0.1-0.2-0.1-0.2l-0.1-0.1c0-0.1-0.1-0.1-0.2-0.2l-0.1-0.1l-0.1-0.1l-15.7-11c-0.5-0.4-1.3-0.4-1.8,0
	l-15,10.2L35.3,12.5c-0.5-0.4-1.3-0.4-1.8,0l-15.7,11c-0.1,0-0.1,0.1-0.2,0.1c0,0-0.1,0-0.1,0.1c-0.1,0.1-0.2,0.3-0.3,0.4v0.1
	c-0.1,0.2-0.1,0.4-0.1,0.6v50.3c0,0.5,0.3,1,0.7,1.3l15.7,11h0.1l0.1,0.1h0.1c0.2,0.1,0.4,0.2,0.7,0.2c0.3,0,0.4-0.1,0.7-0.2h0.1
	c0,0,0.1,0,0.1-0.1h0.1l14.8-10.4l14.8,10.4h0.1l0.1,0.1h0.1c0.2,0.1,0.4,0.2,0.7,0.2c0.2,0,0.4-0.1,0.7-0.2h0.1c0,0,0.1,0,0.1-0.1
	h0.1l15.7-11l0.1-0.1L82.9,24.4z M20.3,28l11.3,7.9l-11.3,7.9V28z M32.8,83.1l-12.5-8.7V50l7.9,5.5l4.6,3.2V83.1z M64.2,83.2
	l-12.5-8.7V50l12.5,8.8V83.2z M64.8,37.2l13.8,9.7l-12.2,8.6L65.7,56L51,45.6h-0.1c0,0-0.1,0-0.1-0.1h-0.1c0,0-0.1,0-0.1-0.1h-0.1
	c-0.1,0-0.1,0-0.2,0c-0.1,0-0.1,0-0.2,0c0,0,0,0-0.1,0s0,0-0.1,0s-0.1,0-0.2,0c-0.1,0-0.1,0-0.2,0h-0.1c0,0-0.1,0-0.1,0.1h-0.1
	c0,0-0.1,0-0.1,0.1H49L34.4,56l-0.7-0.5l-12.2-8.6l13.8-9.7c0.4-0.3,0.7-0.8,0.7-1.3s-0.3-1-0.7-1.3l-13.8-9.7l12.9-9l14.5,10.2
	c0.5,0.4,1.3,0.4,1.8,0l15-10.2l12.9,9l-13.8,9.7c-0.4,0.3-0.7,0.8-0.7,1.3S64.4,36.9,64.8,37.2L64.8,37.2z"/>
</svg>
